<?xml version="1.0" encoding="utf-8"?>
<!-- Generator: Adobe Illustrator 27.0.1, SVG Export Plug-In . SVG Version: 6.00 Build 0)  -->
<svg version="1.1" xmlns="http://www.w3.org/2000/svg" xmlns:xlink="http://www.w3.org/1999/xlink" x="0px" y="0px"
	 viewBox="0 0 404 144" style="enable-background:new 0 0 404 144;" xml:space="preserve">
<style type="text/css">
	
		.st0{clip-path:url(#SVGID_00000182512108732993900000000015519218162275617946_);fill:url(#SVGID_00000120545346808520210820000017459034676138713253_);}
	.st1{clip-path:url(#SVGID_00000182512108732993900000000015519218162275617946_);}
	.st2{fill:#FFFFFF;}
	.st3{fill:none;stroke:#000000;stroke-width:8;stroke-miterlimit:10;}
	.st4{fill:#39B54A;}
	.st5{fill:none;}
	.st6{fill:#1A1A1A;}
	.st7{fill:#FFFFFF;stroke:#000000;stroke-miterlimit:10;}
	.st8{fill:none;stroke:#000000;stroke-width:3;stroke-linecap:round;stroke-linejoin:round;stroke-miterlimit:10;}
	.st9{fill:#FFFFFF;stroke:#000000;stroke-width:3;stroke-linecap:round;stroke-linejoin:round;stroke-miterlimit:10;}
	.st10{fill:none;stroke:#1E1E1E;stroke-width:4;stroke-linecap:round;stroke-linejoin:round;stroke-miterlimit:10;}
	.st11{fill:#FFFFFF;stroke:#1E1E1E;stroke-width:4;stroke-linejoin:round;stroke-miterlimit:10;}
	.st12{fill:none;stroke:#1E1E1E;stroke-width:4;stroke-linejoin:round;stroke-miterlimit:10;}
	.st13{fill:#1E1E1E;stroke:#1E1E1E;stroke-width:4;stroke-linejoin:round;stroke-miterlimit:10;}
	.st14{fill:none;stroke:#FFFFFF;stroke-width:4;stroke-linejoin:round;stroke-miterlimit:10;}
	.st15{fill:#1E1E1E;}
	.st16{opacity:0.1;}
	.st17{fill:url(#SVGID_00000071524612508926245010000006346732064391384457_);}
	.st18{fill:url(#SVGID_00000166659590195251328380000004250181466624161450_);}
	.st19{fill:url(#SVGID_00000067922611039626831910000017490556988646637984_);}
</style>
<g id="圖層_1">
</g>
<g id="圖層_2">
	<g>
		<g>
			<g>
				<path class="st4" d="M59.54,63.93c0,2.29-1.18,4.41-3.1,5.56L38.12,80.38l-0.02-11.07l20.23-12.03c0.52-0.32,1.2,0.06,1.2,0.68
					L59.54,63.93z"/>
			</g>
			<g>
				<path class="st4" d="M38.11,58.2l-0.02,11.07L19.77,58.37c-1.92-1.15-3.1-3.27-3.1-5.56l0.01-5.97c0-0.62,0.67-1,1.2-0.68
					L38.11,58.2z"/>
			</g>
			<g>
				<path class="st4" d="M38.11,80.43v54.47c0,1.57-0.58,3.08-1.63,4.25l-4.14,4.59c-0.48,0.54-1.38,0.2-1.38-0.53v-23.59
					L8.78,99.72c-4.38-3.94-6.8-9.13-6.8-14.62V40.73c0-5.49,2.41-10.69,6.8-14.62L29.63,7.39c0.52-0.46,1.33-0.1,1.33,0.6v3.35
					c0,1.8-0.77,3.52-2.11,4.73L13.32,30c-3.22,2.89-4.99,6.7-4.99,10.73v44.36c0,4.03,1.77,7.84,4.99,10.73l17.64,15.83v-24.4
					L19.77,80.6c-1.92-1.15-3.1-3.27-3.1-5.56l0.01-5.97c0-0.62,0.67-1,1.2-0.68L38.11,80.43z"/>
			</g>
			<g>
				<polygon class="st4" points="38.11,47.08 38.11,53.98 38.11,53.98 				"/>
			</g>
			<g>
				<polygon class="st4" points="45.25,53.91 45.25,53.98 45.13,53.98 				"/>
			</g>
			<g>
				<path class="st4" d="M74.23,40.73v44.36c0,5.49-2.41,10.69-6.8,14.62l-20.85,18.72c-0.52,0.46-1.33,0.1-1.33-0.6v-3.35
					c0-1.8,0.77-3.52,2.11-4.73l15.53-13.93c3.22-2.89,4.99-6.7,4.99-10.73V40.73c0-4.03-1.77-7.84-4.99-10.73L45.25,14.17v28.67
					l13.08-7.79c0.52-0.32,1.2,0.06,1.2,0.68l0.01,5.97c0,2.29-1.18,4.41-3.1,5.56l-11.19,6.65l-0.12,0.07l-7.01,4.17l-0.01-4.17
					l-0.01-6.9V2.83c0-1.17,1.38-1.79,2.25-1.01l0.02,0.02l27.05,24.28C71.81,30.05,74.23,35.24,74.23,40.73z"/>
			</g>
		</g>
		<g>
			<path class="st6" d="M88.33,60.63c-0.16-0.37-0.24-1.56-0.24-3.57c0-2.01,0.08-3.17,0.24-3.49c4.07,0.42,9.18,0.63,15.32,0.63
				h15.32v-4.68h-11.59c-3.86,0-7.7,0.16-11.51,0.48c-0.16-0.27-0.24-1.34-0.24-3.22s0.08-2.92,0.24-3.14
				c2.86,0.32,6.69,0.48,11.51,0.48h11.59v-4.21H105.8c-3.65,0-8.02,0.19-13.1,0.56c-0.16-0.26-0.24-1.36-0.24-3.29
				c0-1.93,0.08-3.03,0.24-3.29c3.81,0.37,8.18,0.56,13.1,0.56h13.18v-2.62c0-0.69-0.05-1.67-0.16-2.94
				c1.69-0.11,3.47-0.08,5.32,0.08c2.27,0.21,3.41,0.56,3.41,1.03c-0.85,0.74-1.27,1.48-1.27,2.22v2.22h13.5
				c3.81,0,8.31-0.18,13.5-0.56c0.16,0.27,0.24,1.36,0.24,3.29c0,1.93-0.08,3.03-0.24,3.29c-3.86-0.37-8.36-0.56-13.5-0.56h-13.5
				v4.21h11.91c3.97,0,7.94-0.16,11.91-0.48c0.16,0.21,0.24,1.26,0.24,3.14s-0.08,2.95-0.24,3.22c-2.91-0.32-6.88-0.48-11.91-0.48
				h-11.91v4.68h15.64c4.87,0,10.05-0.21,15.56-0.63c0.16,0.32,0.24,1.48,0.24,3.49c0,2.01-0.08,3.2-0.24,3.57
				c-4.29-0.48-10.06-0.71-17.31-0.71h-17.31h-17.3C99.79,59.92,94.05,60.15,88.33,60.63z M102.15,102.47
				c-2.49,0-3.94-0.13-4.37-0.4c0.53-5.19,0.79-11.48,0.79-18.89v-9.45c0-3.76-0.13-6.91-0.4-9.45c0-0.37,0.13-0.56,0.4-0.56
				c3.6,0.37,7.72,0.56,12.38,0.56h12.39h12.46c4.66,0,8.79-0.18,12.39-0.56c0.42,0,0.63,0.19,0.63,0.56
				c-0.42,3.92-0.63,8.86-0.63,14.84v14.92c0,2.06-0.27,3.6-0.79,4.61c-0.53,1.11-1.54,1.91-3.02,2.38
				c-1.27,0.48-3.1,0.79-5.48,0.95c-1.48,0.11-4.16,0.16-8.02,0.16c-0.32-2.01-1.06-4.29-2.22-6.83c4.07,0.21,7.57,0.24,10.48,0.08
				c0.64,0,1.06-0.09,1.27-0.28c0.21-0.18,0.32-0.57,0.32-1.15v-9.05h-34.85v8.57c0,3.33,0.13,6.19,0.4,8.57
				C106.06,102.33,104.69,102.47,102.15,102.47z M105.88,78.81h13.18v-8.57h-6.59h-6.59V78.81z M126.12,78.81h14.61v-8.57h-7.3
				h-7.31V78.81z"/>
			<path class="st6" d="M203.68,102.47c-2.43,0-3.73-0.13-3.89-0.4c0.21-2.22,0.32-4.53,0.32-6.91v-6.99
				c-3.65,2.81-8.1,5.4-13.34,7.78c-4.92,2.27-9.87,4.02-14.85,5.24c-1.16-2.12-2.65-4.08-4.45-5.87c4.82-0.95,9.58-2.3,14.29-4.05
				c4.97-1.8,9.18-3.81,12.62-6.03h-12.62c-3.55,0-7.73,0.19-12.54,0.56c-0.16-0.26-0.24-1.42-0.24-3.45s0.08-3.22,0.24-3.53
				c4.07,0.43,9.21,0.64,15.4,0.64h15.48v-5h-10.4c-4.39,0-7.86,0.16-10.4,0.48c-0.27,0-0.4-0.16-0.4-0.48
				c0.32-1.32,0.45-3.91,0.4-7.78c0-0.79,0-1.38,0-1.75v-9.53h-4.92c-1.64,0-3.26,0.08-4.84,0.24c-0.16-0.11-0.24-1.14-0.24-3.1
				c0-1.96,0.08-2.99,0.24-3.1c1.22,0.16,2.83,0.24,4.84,0.24h4.92v-2.7c0-0.74-0.05-1.75-0.16-3.02c1.69-0.11,3.47-0.08,5.32,0.08
				c2.22,0.21,3.33,0.56,3.33,1.03c-0.85,0.74-1.27,1.51-1.27,2.3v2.3h11.67v-3.02c0-0.79-0.05-1.88-0.16-3.26
				c1.64-0.11,3.36-0.08,5.16,0.08c2.17,0.21,3.26,0.56,3.26,1.03c-0.85,0.85-1.27,1.69-1.27,2.54v2.62h14.21v-3.89h-6.03v-5.87
				h-19.21v2.78c0,1.01,0.05,1.93,0.16,2.78c-0.06,0.21-1.3,0.32-3.73,0.32c-2.43,0-3.71-0.11-3.81-0.32
				c0.1-0.85,0.16-1.77,0.16-2.78v-2.78h-8.73c-2.65,0-5.56,0.13-8.73,0.4c-0.16-0.21-0.24-1.3-0.24-3.26
				c0-1.96,0.08-3.04,0.24-3.25c2.38,0.27,5.29,0.4,8.73,0.4h8.73v-2.46c0-0.69-0.06-1.61-0.16-2.78c1.69-0.11,3.46-0.08,5.32,0.08
				c2.23,0.21,3.34,0.56,3.34,1.03c-0.85,0.63-1.27,1.32-1.27,2.06v2.07h19.21v-2.46c0-0.69-0.05-1.61-0.16-2.78
				c1.69-0.11,3.47-0.08,5.32,0.08c2.22,0.21,3.33,0.56,3.33,1.03c-0.85,0.63-1.27,1.32-1.27,2.06v2.07h8.89
				c2.65,0,5.61-0.13,8.89-0.4c0.16,0.21,0.24,1.3,0.24,3.25c0,1.96-0.08,3.04-0.24,3.26c-2.49-0.26-5.45-0.4-8.89-0.4h-8.89v4.37
				h5.87v5.4h5.87c2.01,0,3.97-0.08,5.87-0.24c0.16,0.11,0.24,1.14,0.24,3.1c0,1.96-0.08,2.99-0.24,3.1
				c-1.43-0.16-3.39-0.24-5.87-0.24h-5.87v9.45H198.2v-9.45h-11.67v13.34h24.69h12.39c3.44,0,7.57-0.18,12.39-0.56
				c0.16,0.27,0.24,1.4,0.24,3.41c0,2.01-0.08,3.17-0.24,3.49c-3.81-0.42-8.6-0.64-14.37-0.64h-14.45v5h15.8
				c4.87,0,10.11-0.21,15.72-0.64c0.16,0.32,0.24,1.5,0.24,3.53s-0.08,3.19-0.24,3.45c-3.6-0.37-7.78-0.56-12.54-0.56h-12.62
				c3.34,2.33,7.41,4.37,12.23,6.11c4.65,1.69,9.47,2.94,14.45,3.73c-1.91,1.91-3.44,4.02-4.6,6.35c-5.24-1.16-10.35-2.96-15.32-5.4
				c-5.14-2.49-9.5-5.34-13.1-8.57v7.3c0,2.43,0.11,4.87,0.32,7.3C207.33,102.33,206.06,102.47,203.68,102.47z M205.19,60.23h7.07
				h7.14v-4.84h-14.21V60.23z"/>
			<path class="st6" d="M263.77,101.99c-0.42-2.75-1.24-5.24-2.46-7.46c2.54,0.16,5.82,0.21,9.84,0.16c0.43,0,0.72,0,0.88,0
				c0.69,0,1.16-0.13,1.43-0.4c0.26-0.27,0.4-0.74,0.4-1.43v-22.7c-2.65,3.81-5.82,7.49-9.52,11.03c-3.55,3.39-7.15,6.3-10.8,8.73
				c-2.49-2.65-4.29-4.42-5.4-5.32c3.97-2.33,7.75-5.16,11.35-8.49c3.76-3.49,6.77-7.09,9.05-10.8l5.32,1.91V47.53
				c-5.24,6.3-11.51,11.83-18.81,16.59c-2.01-2.22-3.86-3.99-5.56-5.32c3.54-1.91,6.99-4.21,10.32-6.91
				c3.44-2.86,6.25-5.72,8.42-8.57l5.64,2.14v-5.32h-11.59c-3.86,0-7.7,0.16-11.51,0.48c-0.16-0.27-0.24-1.61-0.24-4.05
				c0-2.43,0.08-3.81,0.24-4.13c3.97,0.42,9.02,0.63,15.16,0.63h7.62c2.59,0,5.1-0.11,7.54-0.32c0.42,0,0.64,0.11,0.64,0.32
				c-0.43,3.97-0.64,8.95-0.64,14.93v15v29.93c0,2.17-0.28,3.85-0.83,5.04c-0.56,1.19-1.5,2.1-2.82,2.74
				c-1.22,0.53-3.04,0.9-5.48,1.11C270.26,101.94,267.53,101.99,263.77,101.99z M297.51,101.91c-0.53-2.7-1.43-5.24-2.7-7.62
				c4.71,0.27,8.81,0.32,12.3,0.16c0.79,0,1.33-0.14,1.63-0.44c0.29-0.29,0.44-0.81,0.44-1.55v-26.2c-2.59,4.18-5.8,8.23-9.61,12.14
				c-3.76,3.81-7.62,6.99-11.59,9.53c-1.33-1.59-3.15-3.36-5.48-5.32c4.02-2.27,7.8-5.11,11.35-8.49c3.65-3.49,6.56-7.15,8.73-10.96
				l6.59,2.3V40.15h-11.75c-3.92,0-7.83,0.16-11.75,0.48c-0.16-0.27-0.24-1.61-0.24-4.05c0-2.43,0.08-3.81,0.24-4.13
				c4.07,0.42,9.21,0.63,15.4,0.63h7.78c2.59,0,5.16-0.11,7.7-0.32c0.42,0,0.63,0.11,0.63,0.32c-0.42,3.92-0.63,8.87-0.63,14.84
				v14.93v29.69c0,2.33-0.29,4.1-0.88,5.32c-0.58,1.22-1.61,2.14-3.09,2.78C310.22,101.59,305.19,102.02,297.51,101.91z
				 M289.1,63.41c-2.54-2.54-4.45-4.23-5.72-5.08c3.39-1.96,6.69-4.34,9.92-7.15c3.28-2.86,6-5.77,8.17-8.73
				c1.75,0.64,3.36,1.51,4.84,2.62c1.48,1.16,2.04,1.98,1.67,2.46c-0.27,0.32-0.66,0.53-1.19,0.63c-0.9,0.11-1.75,0.63-2.54,1.59
				c-1.59,1.85-3.28,3.63-5.08,5.32C295.58,58.51,292.22,61.29,289.1,63.41z"/>
			<path class="st6" d="M353.88,93.89l-3.73-6.51c1.85-1.01,4.07-2.3,6.67-3.89c-4.18,1.53-10.48,3.73-18.89,6.59
				c-3.02,1.01-5.21,1.75-6.59,2.22l-1.91-6.99c1.69-0.48,4.66-1.35,8.89-2.62c0.69-0.21,1.19-0.37,1.51-0.48V64.44h-4.21
				c-1.43,0-2.83,0.08-4.21,0.24c-0.16-0.11-0.24-1.31-0.24-3.61c0-2.3,0.08-3.51,0.24-3.61c1.06,0.16,2.46,0.24,4.21,0.24h4.21
				V42.53h-4.6c-1.54,0-3.07,0.08-4.61,0.24c-0.16-0.11-0.24-1.34-0.24-3.69c0-2.35,0.08-3.61,0.24-3.77
				c2.12,0.21,4.23,0.32,6.35,0.32h6.35h6.43c1.48,0,3.6-0.11,6.35-0.32c0.16,0.16,0.24,1.42,0.24,3.77c0,2.36-0.08,3.59-0.24,3.69
				c-1.11-0.16-2.65-0.24-4.61-0.24h-4.68v15.16h4.13c1.37,0,2.72-0.08,4.05-0.24c0.16,0.11,0.24,1.31,0.24,3.61
				c0,2.3-0.08,3.51-0.24,3.61c-0.95-0.16-2.3-0.24-4.05-0.24h-4.13v15.64l9.29-2.94l0.87,6.19c2.17-1.32,5.72-3.52,10.64-6.59
				c1.11-0.74,1.96-1.3,2.54-1.67l2.14,6.11C365.47,86.17,359.33,90.4,353.88,93.89z M365.71,102.07c-0.27-1.64-1.09-4.02-2.46-7.15
				c4.5,0.16,7.51,0.19,9.05,0.08c1.16,0,1.75-0.56,1.75-1.67V71.51V49.68h-9.61c-2.86,0-6.06,0.13-9.6,0.4
				c-0.16-0.21-0.24-1.48-0.24-3.81c0-2.33,0.08-3.6,0.24-3.81c2.65,0.27,5.85,0.4,9.6,0.4h9.61v-6.83c0-2.12-0.11-4.5-0.32-7.14
				c1.75-0.11,3.6-0.08,5.56,0.08c2.43,0.21,3.65,0.56,3.65,1.03c-1.27,2.12-1.91,4.23-1.91,6.35v6.51h10.4
				c3.54,0,7.01-0.16,10.4-0.48c0.16,0.21,0.24,1.5,0.24,3.85c0,2.36-0.08,3.67-0.24,3.93c-2.54-0.32-6.01-0.48-10.4-0.48h-10.4
				v2.46c1.53,9.53,3.92,17.17,7.14,22.94c3.34,5.98,8.26,11.22,14.77,15.72c-2.17,1.85-3.68,3.76-4.52,5.71
				c-7.94-5.98-13.73-13.07-17.38-21.27v18.1c0,3.7-1.09,6.11-3.26,7.22C375.71,101.57,371.69,102.07,365.71,102.07z M364.04,71.03
				c-1.38-4.29-4-9.05-7.86-14.29l5.56-2.62c1.48,1.85,3.09,4.23,4.84,7.15c1.64,2.65,2.81,4.95,3.49,6.91L364.04,71.03z
				 M395.87,42.61c-0.9-1.16-2.46-2.67-4.68-4.53c-2.12-1.8-4.13-3.25-6.03-4.36l3.97-3.89c4.92,2.81,8.57,5.61,10.95,8.41
				L395.87,42.61z M390.47,70.71l-5.16-2.94c3.65-4.39,6.8-9.24,9.45-14.53c1.64,0.9,3.18,1.93,4.61,3.1
				c1.43,1.22,2.04,1.98,1.82,2.3c-0.21,0.27-0.53,0.43-0.95,0.48c-0.69,0.16-1.27,0.58-1.74,1.27c-0.58,0.85-1.51,2.12-2.78,3.81
				C394.07,66.43,392.33,68.6,390.47,70.71z"/>
		</g>
		<g>
			<path class="st6" d="M62.6,140.33l5.54-16.29h2.29l2.76,8.16l2.78,8.14h-2.18l-1.55-4.98h-5.96l-1.58,4.98H62.6z M66.78,133.71
				h2.47h2.47l-0.78-2.49c-0.44-1.38-0.99-3.22-1.64-5.51H69.2c-0.4,1.51-0.94,3.35-1.62,5.51L66.78,133.71z"/>
			<path class="st6" d="M89.8,140.62c-2.07,0-3.74-0.76-5-2.29c-1.31-1.56-1.96-3.62-1.96-6.2s0.65-4.63,1.96-6.16
				c1.26-1.5,2.93-2.25,5-2.25c2.08,0,3.75,0.75,5.02,2.25c1.29,1.53,1.93,3.58,1.93,6.17c0,2.59-0.64,4.65-1.93,6.19
				C93.54,139.86,91.87,140.62,89.8,140.62z M89.8,138.82c1.47,0,2.64-0.61,3.53-1.82c0.88-1.21,1.32-2.84,1.32-4.87
				c0-2.03-0.44-3.64-1.32-4.82c-0.88-1.19-2.06-1.78-3.53-1.78c-1.48,0-2.66,0.59-3.53,1.78c-0.87,1.19-1.31,2.79-1.31,4.82
				c0,2.03,0.44,3.65,1.33,4.87C87.18,138.21,88.35,138.82,89.8,138.82z"/>
			<path class="st6" d="M106.05,140.44c-0.12,0-0.18-0.04-0.18-0.11c0.13-0.55,0.19-1.66,0.18-3.33c0-0.33,0-0.57,0-0.73v-4.07
				v-4.09c0-1.64-0.06-3-0.18-4.07c0-0.07,0.06-0.11,0.18-0.11c0.67,0.07,1.47,0.11,2.42,0.11h2.42c3.73,0,5.6,1.33,5.6,3.98
				c0,0.83-0.21,1.56-0.62,2.2c-0.43,0.65-1.02,1.1-1.78,1.33v0.11c1.02,0.19,1.82,0.61,2.4,1.24c0.62,0.7,0.93,1.58,0.93,2.65
				c0,1.56-0.57,2.75-1.71,3.58c-1.1,0.8-2.59,1.2-4.47,1.2h-2.6C107.63,140.33,106.76,140.37,106.05,140.44z M108.12,130.97h2.42
				c2.62,0,3.94-0.9,3.94-2.69c0-0.93-0.33-1.61-0.98-2.02c-0.61-0.4-1.56-0.6-2.87-0.6h-2.51v2.67V130.97z M108.12,138.69h2.85
				c2.96,0,4.45-1.07,4.45-3.2c0-1.96-1.48-2.93-4.45-2.93h-2.85v3.07V138.69z"/>
			<path class="st6" d="M124.28,140.33l5.54-16.29h2.29l2.76,8.16l2.78,8.14h-2.18l-1.55-4.98h-5.96l-1.58,4.98H124.28z
				 M128.46,133.71h2.47h2.47l-0.78-2.49c-0.44-1.38-0.99-3.22-1.64-5.51h-0.09c-0.4,1.51-0.94,3.35-1.62,5.51L128.46,133.71z"/>
			<path class="st6" d="M156.47,140.44c-0.12,0-0.18-0.04-0.18-0.11c0.13-0.55,0.19-1.66,0.18-3.33c0-0.33,0-0.57,0-0.73v-4.07
				v-4.09c0-1.64-0.06-3-0.18-4.07c0-0.07,0.06-0.11,0.18-0.11c0.67,0.07,1.47,0.11,2.42,0.11h2.42c3.73,0,5.6,1.33,5.6,3.98
				c0,0.83-0.21,1.56-0.62,2.2c-0.43,0.65-1.02,1.1-1.78,1.33v0.11c1.02,0.19,1.82,0.61,2.4,1.24c0.62,0.7,0.93,1.58,0.93,2.65
				c0,1.56-0.57,2.75-1.71,3.58c-1.1,0.8-2.59,1.2-4.47,1.2h-2.6C158.05,140.33,157.18,140.37,156.47,140.44z M158.53,130.97h2.42
				c2.62,0,3.94-0.9,3.94-2.69c0-0.93-0.33-1.61-0.98-2.02c-0.61-0.4-1.56-0.6-2.87-0.6h-2.51v2.67V130.97z M158.53,138.69h2.85
				c2.96,0,4.45-1.07,4.45-3.2c0-1.96-1.48-2.93-4.45-2.93h-2.85v3.07V138.69z"/>
			<path class="st6" d="M179.45,140.62c-1.04,0-1.88-0.3-2.53-0.89c-0.67-0.62-1-1.47-1-2.53c0-1.3,0.59-2.31,1.78-3.02
				c1.17-0.7,3.05-1.19,5.65-1.49c0-2.03-0.83-3.04-2.49-3.04c-1.14,0-2.35,0.43-3.62,1.29l-0.8-1.4c1.64-1.05,3.23-1.58,4.76-1.58
				c1.42,0,2.49,0.45,3.2,1.36c0.65,0.84,0.98,2.05,0.98,3.6v3.71v3.71h-1.67l-0.18-1.44h-0.07
				C182.06,140.04,180.73,140.62,179.45,140.62z M180.03,139c0.56,0,1.12-0.13,1.67-0.4c0.47-0.25,1.02-0.65,1.64-1.2v-1.69v-1.69
				c-1.97,0.24-3.39,0.61-4.25,1.11c-0.8,0.47-1.2,1.12-1.2,1.93c0,0.65,0.21,1.15,0.62,1.49C178.89,138.85,179.39,139,180.03,139z"
				/>
			<path class="st6" d="M199.1,140.62c-1.53,0-2.73-0.55-3.62-1.64c-0.91-1.13-1.36-2.68-1.36-4.67c0-1.9,0.52-3.45,1.58-4.65
				c0.99-1.14,2.21-1.71,3.65-1.71c0.67,0,1.28,0.13,1.84,0.38c0.45,0.21,0.97,0.56,1.56,1.05l-0.11-2.09v-4.65h2.02v8.85v8.85
				h-1.64l-0.2-1.42h-0.04C201.6,140.05,200.38,140.62,199.1,140.62z M199.54,138.93c1.07,0,2.1-0.56,3.09-1.67v-3.16v-3.18
				c-0.95-0.84-1.93-1.27-2.94-1.27c-0.99,0-1.82,0.42-2.47,1.27c-0.68,0.88-1.02,1.99-1.02,3.36c0,1.47,0.29,2.61,0.87,3.42
				C197.65,138.53,198.48,138.93,199.54,138.93z"/>
			<path class="st6" d="M214.55,140.33v-6.02v-6.05h1.67l0.18,1.76h0.07c1.24-1.38,2.5-2.07,3.76-2.07c1.69,0,2.8,0.77,3.34,2.31
				c1.41-1.54,2.73-2.31,3.98-2.31c2.45,0,3.67,1.58,3.67,4.73v7.65h-2.02v-7.38c0-1.13-0.18-1.94-0.55-2.46
				c-0.36-0.51-0.93-0.77-1.7-0.77c-0.91,0-1.92,0.61-3.05,1.84v8.76h-2.02v-7.38c0-1.13-0.18-1.94-0.54-2.46
				c-0.36-0.51-0.93-0.77-1.7-0.77c-0.93,0-1.95,0.61-3.04,1.84v8.76H214.55z"/>
			<path class="st6" d="M241.93,125.77c-0.4,0-0.73-0.13-1-0.38c-0.27-0.25-0.4-0.56-0.4-0.93c0-0.4,0.13-0.72,0.39-0.96
				c0.26-0.24,0.6-0.36,1.01-0.36c0.42,0,0.75,0.12,1.01,0.36c0.26,0.24,0.39,0.56,0.39,0.96c0,0.38-0.13,0.7-0.4,0.93
				C242.68,125.65,242.35,125.77,241.93,125.77z M240.91,140.33v-12.07h2.02v6.05v6.02H240.91z"/>
			<path class="st6" d="M252.8,140.33v-6.02v-6.05h1.67l0.18,1.73h0.07c0.67-0.65,1.28-1.13,1.84-1.44c0.71-0.4,1.45-0.6,2.2-0.6
				c2.46,0,3.69,1.58,3.69,4.73v7.65h-2.02v-7.38c0-1.13-0.18-1.94-0.55-2.46c-0.36-0.51-0.94-0.77-1.74-0.77
				c-0.59,0-1.15,0.16-1.67,0.47c-0.43,0.25-0.98,0.71-1.64,1.38v8.76H252.8z"/>
			<path class="st6" d="M275.96,140.62c-2.3,0-3.44-1.34-3.44-4.02v-6.69h-1.8v-1.53l1.89-0.11l0.25-3.38h1.69v3.38h1.64
				c0.55,0,1.09-0.02,1.62-0.07c0.05,0.03,0.07,0.33,0.07,0.89c0,0.56-0.02,0.86-0.07,0.89c-0.4-0.04-0.94-0.07-1.62-0.07h-1.64
				v3.38v3.36c0,0.79,0.13,1.36,0.4,1.73c0.3,0.4,0.79,0.6,1.47,0.6c0.38,0,0.84-0.1,1.38-0.31l0.4,1.51
				C277.27,140.47,276.53,140.62,275.96,140.62z"/>
			<path class="st6" d="M290.68,140.62c-1.55,0-2.86-0.56-3.91-1.67c-1.13-1.17-1.69-2.72-1.69-4.66c0-1.93,0.56-3.49,1.69-4.68
				c1.05-1.11,2.36-1.67,3.91-1.67c1.57,0,2.88,0.56,3.91,1.67c1.13,1.2,1.69,2.76,1.69,4.69c0,1.93-0.56,3.48-1.69,4.65
				C293.54,140.07,292.24,140.62,290.68,140.62z M290.68,138.93c1.05,0,1.9-0.42,2.54-1.27c0.65-0.84,0.97-1.96,0.97-3.36
				s-0.33-2.52-0.98-3.38c-0.62-0.86-1.47-1.29-2.54-1.29c-1.04,0-1.88,0.43-2.52,1.29c-0.64,0.86-0.97,1.99-0.97,3.38
				s0.32,2.51,0.96,3.36C288.78,138.51,289.63,138.93,290.68,138.93z"/>
			<path class="st6" d="M305.24,140.33v-6.02v-6.05h1.67l0.18,1.73h0.07c0.67-0.65,1.28-1.13,1.84-1.44c0.71-0.4,1.45-0.6,2.2-0.6
				c2.46,0,3.69,1.58,3.69,4.73v7.65h-2.02v-7.38c0-1.13-0.18-1.94-0.55-2.46c-0.36-0.51-0.94-0.77-1.74-0.77
				c-0.59,0-1.15,0.16-1.67,0.47c-0.43,0.25-0.98,0.71-1.64,1.38v8.76H305.24z"/>
			<path class="st6" d="M341.69,140.62c-2.07,0-3.76-0.74-5.07-2.22c-1.35-1.54-2.02-3.61-2.02-6.2c0-2.59,0.69-4.66,2.07-6.2
				c1.33-1.51,3.05-2.27,5.15-2.27c0.92,0,1.79,0.21,2.62,0.62c0.71,0.36,1.33,0.82,1.85,1.4l-1.11,1.33
				c-0.97-1.04-2.08-1.56-3.34-1.56c-1.55,0-2.8,0.6-3.73,1.79c-0.93,1.19-1.4,2.8-1.4,4.81c0,2.06,0.46,3.69,1.37,4.89
				c0.91,1.2,2.15,1.8,3.7,1.8c1.39,0,2.65-0.61,3.78-1.82l1.13,1.29C345.34,139.84,343.68,140.62,341.69,140.62z"/>
			<path class="st6" d="M357.45,140.62c-1.42,0-2.14-0.9-2.14-2.69v-15.29h2.02v7.71v7.71c0,0.58,0.19,0.87,0.58,0.87
				c0.13,0,0.27-0.02,0.42-0.04l0.29,1.56C358.32,140.56,357.92,140.62,357.45,140.62z"/>
			<path class="st6" d="M370.95,140.62c-2.45,0-3.67-1.57-3.67-4.71v-7.65h2.02v7.4c0,1.13,0.18,1.94,0.53,2.44
				c0.35,0.5,0.93,0.76,1.73,0.76c0.61,0,1.16-0.16,1.67-0.49c0.47-0.3,1.01-0.81,1.6-1.55v-8.56h2.02v6.05v6.02h-1.69l-0.16-1.89
				h-0.07c-0.61,0.71-1.21,1.24-1.8,1.58C372.46,140.42,371.73,140.62,370.95,140.62z"/>
			<path class="st6" d="M392.02,140.62c-1.19,0-2.33-0.51-3.44-1.53h-0.07l-0.18,1.24h-1.62v-8.85v-8.85h2.02v4.85l-0.07,2.18
				c1.3-1.14,2.56-1.71,3.78-1.71c1.54,0,2.73,0.56,3.58,1.69c0.83,1.08,1.24,2.56,1.24,4.45c0,2-0.52,3.61-1.58,4.82
				C394.69,140.05,393.47,140.62,392.02,140.62z M391.68,138.93c1.02,0,1.85-0.42,2.49-1.27c0.65-0.89,0.98-2.07,0.98-3.53
				c0-2.98-1.06-4.47-3.18-4.47c-0.98,0-2.06,0.56-3.24,1.67v3.18v3.16C389.69,138.51,390.68,138.93,391.68,138.93z"/>
		</g>
		<g>
			<rect y="0" class="st5" width="403.28" height="143.69"/>
		</g>
	</g>
</g>
</svg>
