<?xml version="1.0" encoding="utf-8"?>
<!-- Generator: Adobe Illustrator 27.0.1, SVG Export Plug-In . SVG Version: 6.00 Build 0)  -->
<svg version="1.1" xmlns="http://www.w3.org/2000/svg" xmlns:xlink="http://www.w3.org/1999/xlink" x="0px" y="0px"
	 viewBox="0 0 40 40" style="enable-background:new 0 0 40 40;" xml:space="preserve">
<style type="text/css">
	.st0{fill:none;stroke:#000000;stroke-width:8;stroke-miterlimit:10;}
	.st1{fill:#39B54A;}
	.st2{fill:#FFFFFF;}
	.st3{fill:#56BBB5;}
	.st4{fill:#FFFFFF;stroke:#FFFFFF;stroke-width:0.5;stroke-miterlimit:10;}
	.st5{fill:#FFFFFF;stroke:#000000;stroke-miterlimit:10;}
	.st6{fill:none;stroke:#000000;stroke-width:3;stroke-linecap:round;stroke-linejoin:round;stroke-miterlimit:10;}
	.st7{fill:#FFFFFF;stroke:#000000;stroke-width:3;stroke-linecap:round;stroke-linejoin:round;stroke-miterlimit:10;}
	.st8{fill:none;stroke:#1E1E1E;stroke-width:4;stroke-linecap:round;stroke-linejoin:round;stroke-miterlimit:10;}
	.st9{fill:#FFFFFF;stroke:#1E1E1E;stroke-width:4;stroke-linejoin:round;stroke-miterlimit:10;}
	.st10{fill:none;stroke:#1E1E1E;stroke-width:4;stroke-linejoin:round;stroke-miterlimit:10;}
	.st11{fill:#1E1E1E;stroke:#1E1E1E;stroke-width:4;stroke-linejoin:round;stroke-miterlimit:10;}
	.st12{fill:none;stroke:#FFFFFF;stroke-width:4;stroke-linejoin:round;stroke-miterlimit:10;}
	.st13{fill:none;}
	.st14{fill:#1E1E1E;}
	.st15{fill:#9B9B9B;}
	
		.st16{clip-path:url(#SVGID_00000140694223856142389220000000389924917234955949_);fill:url(#SVGID_00000172405243318553814790000005921804289534197918_);}
	.st17{opacity:0.1;}
	.st18{fill:url(#SVGID_00000129192228209510861110000014095912511346865552_);}
	.st19{fill:url(#SVGID_00000115483124001930670580000016399844166965957029_);}
	.st20{fill:url(#SVGID_00000127737536643011686750000003768224039769171591_);}
	
		.st21{clip-path:url(#SVGID_00000167359578807933906110000009684473342223896449_);fill:url(#SVGID_00000058569787663422646530000014437846305790094777_);}
	.st22{clip-path:url(#SVGID_00000167359578807933906110000009684473342223896449_);}
	.st23{fill:url(#SVGID_00000044886344069566424640000002349384217158600364_);}
	.st24{fill:url(#SVGID_00000064339731411010558150000011353461242727995324_);}
	.st25{fill:url(#SVGID_00000124843965618783546780000014228752093119219363_);}
</style>
<g id="圖層_1">
</g>
<g id="圖層_2">
	<g>
		<rect class="st13" width="40" height="40"/>
		<g>
			<g>
				<path class="st2" d="M28.4,6H20h-8.4L4.8,34c5.06,0,10.12,0,15.18,0c5.07,0,10.14,0,15.22,0C32.93,24.67,30.67,15.33,28.4,6z"/>
				<path class="st15" d="M35.98,33.81l-6.8-28C29.09,5.45,28.77,5.2,28.4,5.2H11.6c-0.37,0-0.69,0.25-0.78,0.61l-6.8,28
					c-0.06,0.24,0,0.49,0.15,0.68c0.15,0.19,0.38,0.3,0.63,0.3h30.4c0.24,0,0.48-0.11,0.63-0.3C35.98,34.3,36.04,34.05,35.98,33.81z
					 M33.31,29.6h-1.89L27.05,9.2h1.31L33.31,29.6z M27.77,6.8l0.2,0.8H26.7l-0.17-0.8H27.77z M20.8,6.8h4.1l0.17,0.8H20.8V6.8z
					 M20.8,9.2h4.61l4.37,20.4H20.8V9.2z M14.99,6.8h4.21v0.8h-4.38L14.99,6.8z M19.2,9.2v20.4h-9.1l4.37-20.4H19.2z M12.23,6.8
					h1.12l-0.17,0.8h-1.15L12.23,6.8z M7.69,33.2H5.82l0.48-2h1.82L7.69,33.2z M6.69,29.6l4.95-20.4h1.19L8.46,29.6H6.69z
					 M19.2,33.2H9.33l0.43-2h9.44V33.2z M20.8,33.2v-2h9.33l0.43,2H20.8z M32.19,33.2l-0.43-2h1.94l0.48,2H32.19z"/>
			</g>
			<g>
				<rect x="5" y="14.8" class="st2" width="29.6" height="3.6"/>
				<path class="st15" d="M34.6,14H5c-0.44,0-0.8,0.36-0.8,0.8v3.6V22c0,0.44,0.36,0.8,0.8,0.8s0.8-0.36,0.8-0.8v-2.8h28v3
					c0,0.44,0.36,0.8,0.8,0.8c0.44,0,0.8-0.36,0.8-0.8v-3.8V15v-0.2C35.4,14.36,35.04,14,34.6,14z M5.8,17.6v-2h28v2H5.8z"/>
			</g>
		</g>
	</g>
</g>
</svg>
