<?xml version="1.0" encoding="utf-8"?>
<!-- Generator: Adobe Illustrator 27.0.1, SVG Export Plug-In . SVG Version: 6.00 Build 0)  -->
<svg version="1.1" xmlns="http://www.w3.org/2000/svg" xmlns:xlink="http://www.w3.org/1999/xlink" x="0px" y="0px"
	 viewBox="0 0 32 32" style="enable-background:new 0 0 32 32;" xml:space="preserve">
<style type="text/css">
	.st0{fill:none;stroke:#000000;stroke-width:8;stroke-miterlimit:10;}
	.st1{fill:#39B54A;}
	.st2{fill:#FFFFFF;}
	.st3{fill:#56BBB5;}
	.st4{fill:#FFFFFF;stroke:#FFFFFF;stroke-width:0.5;stroke-miterlimit:10;}
	.st5{fill:#FFFFFF;stroke:#000000;stroke-miterlimit:10;}
	.st6{fill:none;stroke:#000000;stroke-width:3;stroke-linecap:round;stroke-linejoin:round;stroke-miterlimit:10;}
	.st7{fill:#FFFFFF;stroke:#000000;stroke-width:3;stroke-linecap:round;stroke-linejoin:round;stroke-miterlimit:10;}
	.st8{fill:none;stroke:#1E1E1E;stroke-width:4;stroke-linecap:round;stroke-linejoin:round;stroke-miterlimit:10;}
	.st9{fill:#FFFFFF;stroke:#1E1E1E;stroke-width:4;stroke-linejoin:round;stroke-miterlimit:10;}
	.st10{fill:none;stroke:#1E1E1E;stroke-width:4;stroke-linejoin:round;stroke-miterlimit:10;}
	.st11{fill:#1E1E1E;stroke:#1E1E1E;stroke-width:4;stroke-linejoin:round;stroke-miterlimit:10;}
	.st12{fill:none;stroke:#FFFFFF;stroke-width:4;stroke-linejoin:round;stroke-miterlimit:10;}
	.st13{fill:none;}
	.st14{fill:#1E1E1E;}
	
		.st15{clip-path:url(#SVGID_00000096762264800799475540000009921196796600747163_);fill:url(#SVGID_00000078729879838396537010000008548972910091343289_);}
	.st16{opacity:0.1;}
	.st17{fill:url(#SVGID_00000094576136005403877730000014759415018991885989_);}
	.st18{fill:url(#SVGID_00000042004158006386117650000012962143650211786680_);}
	.st19{fill:url(#SVGID_00000101801736210947895270000017486251085992588215_);}
	
		.st20{clip-path:url(#SVGID_00000056396901453779777190000018139111553853744019_);fill:url(#SVGID_00000006710206665307116840000011160093247562779272_);}
	.st21{clip-path:url(#SVGID_00000056396901453779777190000018139111553853744019_);}
	.st22{fill:url(#SVGID_00000081613057348341539330000004328693329278571919_);}
	.st23{fill:url(#SVGID_00000022535557998536732790000004667648057631982271_);}
	.st24{fill:url(#SVGID_00000074409168465915853090000006183603381092680883_);}
</style>
<g id="圖層_1">
</g>
<g id="圖層_2">
	<g>
		<g>
			<rect transform="matrix(-1.836970e-16 1 -1 -1.836970e-16 32 3.552714e-15)" class="st3" width="32" height="32"/>
		</g>
		<g>
			<g>
				<g>
					<path class="st2" d="M23.53,19.67v-7.36c0-0.35,0.29-0.64,0.65-0.64h1.22c2.37,0,4.29,1.94,4.29,4.32s-1.93,4.32-4.29,4.32
						h-1.22C23.82,20.31,23.53,20.03,23.53,19.67z M24.83,12.95v6.08h0.57c1.65,0,3-1.36,3-3.04s-1.34-3.04-3-3.04H24.83z"/>
					<path class="st2" d="M25.39,20.39h-1.22c-0.4,0-0.73-0.32-0.73-0.72v-7.36c0-0.4,0.33-0.72,0.73-0.72h1.22
						c2.41,0,4.37,1.97,4.37,4.4S27.81,20.39,25.39,20.39z M24.18,11.75c-0.31,0-0.57,0.25-0.57,0.56v7.36
						c0,0.31,0.25,0.56,0.57,0.56h1.22c2.32,0,4.21-1.9,4.21-4.24s-1.89-4.24-4.21-4.24H24.18z M25.39,19.11h-0.65v-6.24h0.65
						c1.7,0,3.08,1.4,3.08,3.12S27.09,19.11,25.39,19.11z M24.91,18.95h0.49c1.61,0,2.92-1.33,2.92-2.96s-1.31-2.96-2.92-2.96h-0.49
						V18.95z"/>
				</g>
			</g>
			<g>
				<path class="st2" d="M9.17,26.21l12.72-5.77c0.21-0.09,0.34-0.3,0.34-0.53v-0.18c0-0.42-0.44-0.7-0.83-0.53L8.43,25.09
					c-0.4,0.2-0.86,0.24-1.3,0.12c-0.44-0.12-0.79-0.39-0.97-0.74c-0.3-0.58-0.29-1.23,0.02-1.8c0.31-0.57,0.9-1,1.57-1.18
					l14.03-2.99c0.27-0.06,0.46-0.29,0.46-0.57v-0.19c0-0.37-0.34-0.64-0.71-0.57L8.11,20.01C7.58,20.15,7,20.09,6.53,19.84
					c-0.47-0.25-0.8-0.65-0.9-1.12c-0.1-0.46,0.05-0.94,0.39-1.31c0.34-0.37,0.85-0.59,1.4-0.62l14.22-0.06
					c0.32,0,0.58-0.26,0.58-0.58v-0.31c0-0.32-0.26-0.58-0.58-0.58L7.43,15.21c-0.55-0.03-1.06-0.26-1.4-0.62
					c-0.35-0.37-0.49-0.85-0.39-1.31c0.1-0.46,0.42-0.87,0.9-1.12c0.47-0.25,1.05-0.31,1.62-0.16l13.38,2.83
					c0.37,0.08,0.71-0.2,0.71-0.57v-0.19c0-0.27-0.19-0.51-0.46-0.57L7.78,10.52c-0.71-0.18-1.3-0.61-1.61-1.19
					C5.86,8.76,5.85,8.1,6.15,7.53C6.34,7.17,6.68,6.9,7.13,6.78c0.44-0.12,0.9-0.08,1.33,0.13l12.95,5.87
					c0.39,0.18,0.83-0.1,0.83-0.53v-0.18c0-0.23-0.13-0.43-0.34-0.53L9.2,5.8C8.43,5.42,7.51,5.34,6.66,5.57
					C5.81,5.8,5.12,6.33,4.77,7.01c-0.23,0.45-0.35,0.92-0.35,1.4c0,0.5,0.13,0.99,0.38,1.46c0.24,0.45,0.59,0.84,1.03,1.16
					c-0.03,0.01-0.06,0.03-0.09,0.04c-0.84,0.44-1.42,1.16-1.59,1.98c-0.04,0.17-0.05,0.34-0.05,0.51c0,0.66,0.26,1.3,0.75,1.82
					c0.06,0.06,0.12,0.12,0.18,0.18c0.27,0.24,0.27,0.64,0,0.88c-0.06,0.06-0.12,0.11-0.18,0.17c-0.49,0.52-0.75,1.17-0.75,1.82
					c0,0.17,0.02,0.34,0.05,0.51c0.17,0.82,0.75,1.55,1.59,1.98c0.03,0.01,0.06,0.03,0.09,0.04c-0.43,0.32-0.78,0.71-1.02,1.16
					c-0.25,0.46-0.38,0.96-0.38,1.46c0,0.48,0.12,0.95,0.35,1.4c0.36,0.69,1.05,1.22,1.89,1.45C7.51,26.66,8.43,26.58,9.17,26.21z"
					/>
				<path class="st2" d="M7.63,26.64c-0.33,0-0.66-0.04-0.99-0.13c-0.87-0.24-1.58-0.78-1.94-1.49c-0.24-0.45-0.36-0.94-0.36-1.43
					c0-0.51,0.13-1.03,0.39-1.49c0.23-0.42,0.54-0.79,0.94-1.11c-0.85-0.45-1.43-1.19-1.61-2.02c-0.04-0.17-0.05-0.35-0.05-0.52
					c0-0.68,0.27-1.35,0.77-1.88c0.06-0.06,0.12-0.12,0.18-0.18c0.11-0.1,0.17-0.24,0.17-0.38c0-0.14-0.06-0.28-0.17-0.38
					c-0.06-0.06-0.12-0.12-0.18-0.18c-0.5-0.53-0.77-1.2-0.77-1.88c0-0.18,0.02-0.35,0.05-0.52c0.18-0.84,0.76-1.57,1.61-2.02
					c-0.4-0.31-0.72-0.69-0.94-1.1C4.47,9.44,4.34,8.93,4.34,8.41c0-0.5,0.12-0.98,0.36-1.43c0.37-0.71,1.08-1.25,1.94-1.49
					C7.5,5.25,8.45,5.34,9.23,5.73l12.69,5.75c0.24,0.11,0.39,0.34,0.39,0.6v0.18c0,0.22-0.11,0.43-0.3,0.55
					c-0.19,0.12-0.43,0.14-0.64,0.05L8.42,6.99c-0.41-0.2-0.85-0.25-1.28-0.13C6.73,6.98,6.4,7.23,6.22,7.57
					C5.94,8.12,5.94,8.75,6.24,9.29c0.3,0.55,0.87,0.97,1.56,1.15l13.99,2.98c0.31,0.06,0.53,0.34,0.53,0.64v0.19
					c0,0.2-0.09,0.38-0.24,0.51c-0.16,0.13-0.36,0.18-0.56,0.13L8.13,12.07c-0.55-0.14-1.1-0.08-1.56,0.16
					c-0.45,0.24-0.76,0.62-0.85,1.06c-0.09,0.44,0.04,0.89,0.37,1.24c0.33,0.35,0.82,0.57,1.35,0.6l14.22,0.06
					c0.37,0,0.66,0.3,0.66,0.66v0.31c0,0.36-0.3,0.66-0.66,0.66L7.43,16.87c-0.53,0.03-1.02,0.25-1.34,0.6
					c-0.33,0.35-0.47,0.8-0.37,1.24c0.09,0.44,0.4,0.83,0.85,1.06c0.46,0.24,1.01,0.3,1.52,0.17l13.42-2.84
					c0.2-0.04,0.4,0.01,0.56,0.14c0.16,0.13,0.24,0.31,0.24,0.51v0.19c0,0.31-0.22,0.58-0.53,0.65L7.76,21.57
					c-0.65,0.17-1.22,0.59-1.52,1.14c-0.3,0.55-0.3,1.18-0.02,1.73c0.18,0.34,0.5,0.59,0.92,0.7c0.42,0.12,0.87,0.07,1.25-0.12
					l12.98-5.88c0.21-0.09,0.45-0.08,0.64,0.05c0.19,0.12,0.3,0.33,0.3,0.55v0.18c0,0.26-0.15,0.49-0.39,0.6L9.21,26.28
					C8.73,26.52,8.18,26.64,7.63,26.64z M7.62,5.52c-0.31,0-0.63,0.04-0.93,0.12c-0.83,0.23-1.5,0.74-1.84,1.41
					C4.61,7.48,4.5,7.94,4.5,8.41c0,0.49,0.12,0.97,0.37,1.42c0.24,0.43,0.57,0.82,1,1.13l0.11,0.08l-0.16,0.08
					c-0.02,0.01-0.03,0.01-0.05,0.02c-0.82,0.43-1.39,1.13-1.55,1.93c-0.03,0.16-0.05,0.33-0.05,0.49c0,0.64,0.26,1.27,0.73,1.77
					c0.06,0.06,0.11,0.12,0.17,0.17C5.22,15.63,5.3,15.81,5.3,16c0,0.19-0.08,0.37-0.23,0.5c-0.06,0.05-0.12,0.11-0.17,0.17
					c-0.47,0.5-0.73,1.13-0.73,1.77c0,0.16,0.02,0.33,0.05,0.49c0.17,0.8,0.73,1.5,1.55,1.93c0.01,0.01,0.03,0.01,0.05,0.02
					l0.16,0.08l-0.11,0.08c-0.43,0.32-0.77,0.7-1,1.13c-0.24,0.45-0.37,0.92-0.37,1.42c0,0.47,0.11,0.93,0.34,1.36
					c0.35,0.67,1.02,1.18,1.84,1.41c0.83,0.23,1.72,0.15,2.45-0.22l0,0l12.72-5.77c0.18-0.08,0.3-0.26,0.3-0.45v-0.18
					c0-0.17-0.09-0.33-0.23-0.42c-0.15-0.1-0.33-0.11-0.49-0.04L8.46,25.16c-0.41,0.21-0.9,0.25-1.36,0.13
					c-0.46-0.13-0.83-0.41-1.02-0.79c-0.31-0.6-0.3-1.28,0.02-1.88c0.32-0.58,0.92-1.04,1.62-1.22l14.03-2.99
					c0.23-0.05,0.4-0.25,0.4-0.49v-0.19c0-0.15-0.07-0.29-0.18-0.39c-0.12-0.1-0.27-0.14-0.43-0.1L8.12,20.09
					c-0.55,0.14-1.14,0.07-1.63-0.18C6,19.65,5.65,19.23,5.55,18.74c-0.1-0.49,0.05-0.99,0.41-1.38c0.36-0.38,0.89-0.62,1.46-0.65
					l14.23-0.06c0.28,0,0.5-0.23,0.5-0.5v-0.31c0-0.27-0.23-0.5-0.5-0.5L7.43,15.29c-0.57-0.03-1.11-0.27-1.46-0.65
					c-0.36-0.39-0.52-0.89-0.41-1.38c0.1-0.49,0.44-0.91,0.94-1.17c0.5-0.26,1.09-0.32,1.67-0.17l13.38,2.83
					c0.15,0.03,0.31-0.01,0.43-0.1c0.12-0.1,0.18-0.24,0.18-0.39v-0.19c0-0.23-0.17-0.44-0.4-0.49L7.76,10.6
					C7.03,10.41,6.42,9.96,6.1,9.37c-0.32-0.6-0.33-1.28-0.02-1.88c0.2-0.38,0.56-0.66,1.02-0.78c0.47-0.13,0.95-0.08,1.39,0.14
					l12.94,5.87c0.16,0.07,0.34,0.06,0.49-0.04c0.14-0.09,0.23-0.25,0.23-0.42v-0.18c0-0.19-0.12-0.37-0.3-0.45L9.16,5.88
					C8.69,5.64,8.15,5.52,7.62,5.52z"/>
			</g>
		</g>
	</g>
</g>
</svg>
