<?xml version="1.0" encoding="utf-8"?>
<!-- Generator: Adobe Illustrator 27.0.1, SVG Export Plug-In . SVG Version: 6.00 Build 0)  -->
<svg version="1.1" xmlns="http://www.w3.org/2000/svg" xmlns:xlink="http://www.w3.org/1999/xlink" x="0px" y="0px"
	 viewBox="0 0 80 80" style="enable-background:new 0 0 80 80;" xml:space="preserve">
<style type="text/css">
	.st0{fill:none;stroke:#000000;stroke-width:8;stroke-miterlimit:10;}
	.st1{fill:#39B54A;}
	.st2{fill:#FFFFFF;}
	.st3{fill:#56BBB5;}
	.st4{fill:#FFFFFF;stroke:#FFFFFF;stroke-width:0.5;stroke-miterlimit:10;}
	.st5{fill:#FFFFFF;stroke:#000000;stroke-miterlimit:10;}
	.st6{fill:none;stroke:#000000;stroke-width:3;stroke-linecap:round;stroke-linejoin:round;stroke-miterlimit:10;}
	.st7{fill:#FFFFFF;stroke:#000000;stroke-width:3;stroke-linecap:round;stroke-linejoin:round;stroke-miterlimit:10;}
	.st8{fill:none;stroke:#1E1E1E;stroke-width:4;stroke-linecap:round;stroke-linejoin:round;stroke-miterlimit:10;}
	.st9{fill:#FFFFFF;stroke:#1E1E1E;stroke-width:4;stroke-linejoin:round;stroke-miterlimit:10;}
	.st10{fill:none;stroke:#1E1E1E;stroke-width:4;stroke-linejoin:round;stroke-miterlimit:10;}
	.st11{fill:#1E1E1E;stroke:#1E1E1E;stroke-width:4;stroke-linejoin:round;stroke-miterlimit:10;}
	.st12{fill:none;stroke:#FFFFFF;stroke-width:4;stroke-linejoin:round;stroke-miterlimit:10;}
	.st13{fill:none;}
	.st14{fill:#1E1E1E;}
	.st15{fill:#9B9B9B;}
	
		.st16{clip-path:url(#SVGID_00000127003842252006150930000000878889859458558112_);fill:url(#SVGID_00000163758133048835560300000005291495432674435990_);}
	.st17{opacity:0.1;}
	.st18{fill:url(#SVGID_00000137834172835506411590000015080308557445927051_);}
	.st19{fill:url(#SVGID_00000165226593078964081610000015206019837060411288_);}
	.st20{fill:url(#SVGID_00000103963919850823159110000001146421667690770069_);}
	
		.st21{clip-path:url(#SVGID_00000134961729439250501050000017865024178403301551_);fill:url(#SVGID_00000070116170084547072330000013013278119733522066_);}
	.st22{clip-path:url(#SVGID_00000134961729439250501050000017865024178403301551_);}
	.st23{fill:url(#SVGID_00000114032187084821381580000010671279549596514949_);}
	.st24{fill:url(#SVGID_00000114060430074923698020000002733449863794771072_);}
	.st25{fill:url(#SVGID_00000068640119847459916950000015247386836652240267_);}
	.st26{fill:none;stroke:#FF0000;stroke-width:12;stroke-miterlimit:10;}
	.st27{fill:#FF0000;}
	.st28{fill:#FF0000;stroke:#FF0000;stroke-width:12;stroke-miterlimit:10;}
	.st29{clip-path:url(#SVGID_00000122688153099878176050000015419311022738620323_);}
</style>
<g id="圖層_1">
</g>
<g id="圖層_2">
	<g>
		<defs>
			<rect id="SVGID_00000000912311973043720770000016804676585785974930_" x="0" width="80" height="80"/>
		</defs>
		<clipPath id="SVGID_00000063617198038896264580000004330088631128483736_">
			<use xlink:href="#SVGID_00000000912311973043720770000016804676585785974930_"  style="overflow:visible;"/>
		</clipPath>
		<g style="clip-path:url(#SVGID_00000063617198038896264580000004330088631128483736_);">
			<g>
				<path class="st2" d="M41.44,38.7l-0.14-0.14c-5.27-5.27-5.27-13.85,0-19.12l2.78-2.78c5.27-5.27,13.85-5.27,19.12,0l0.14,0.14
					c5.27,5.27,5.27,13.85,0,19.12l-2.78,2.78C55.29,43.97,46.71,43.97,41.44,38.7z M61.31,18.56c-4.23-4.23-11.11-4.23-15.33,0
					l-2.78,2.78c-4.23,4.23-4.23,11.11,0,15.33l0.14,0.14c4.23,4.23,11.11,4.23,15.33,0l2.78-2.78c4.23-4.23,4.23-11.11,0-15.33
					L61.31,18.56z"/>
			</g>
			<g>
				<path class="st2" d="M41.44,38.7l-0.14-0.14c-5.27-5.27-5.27-13.85,0-19.12l2.78-2.78c5.27-5.27,13.85-5.27,19.12,0l0.14,0.14
					c5.27,5.27,5.27,13.85,0,19.12l-2.78,2.78C55.29,43.97,46.71,43.97,41.44,38.7z M61.31,18.56c-4.23-4.23-11.11-4.23-15.33,0
					l-2.78,2.78c-4.23,4.23-4.23,11.11,0,15.33l0.14,0.14c4.23,4.23,11.11,4.23,15.33,0l2.78-2.78c4.23-4.23,4.23-11.11,0-15.33
					L61.31,18.56z"/>
			</g>
			<g>
				<path class="st2" d="M59.59,36.8l1.77-1.77l-3.25-3.25l2.95-2.95l2.76,2.76c0.4-0.86,0.69-1.76,0.87-2.68l-1.85-1.85l1.96-1.96
					c-0.13-0.95-0.38-1.89-0.75-2.8l-2.98,2.98l-2.22-2.22l3.56-3.56c-0.28-0.35-0.58-0.69-0.9-1.02c-0.27-0.27-0.56-0.53-0.85-0.77
					l-3.58,3.58l-2.22-2.22l3.04-3.04c-0.89-0.38-1.81-0.65-2.75-0.8l-2.07,2.07l-2-2c-0.92,0.18-1.82,0.47-2.68,0.87l2.9,2.9
					l-2.95,2.95l-3.4-3.4l-1.77,1.77l3.4,3.4l-2.95,2.95l-2.9-2.9c-0.4,0.86-0.69,1.76-0.87,2.68l2,2L39.8,30.6
					c0.15,0.94,0.42,1.86,0.8,2.75l3.04-3.04l2.22,2.22l-3.58,3.58c0.24,0.29,0.5,0.58,0.77,0.85c0.32,0.32,0.66,0.63,1.02,0.9
					l3.56-3.56l2.22,2.22l-2.98,2.98c0.9,0.37,1.84,0.62,2.8,0.75l1.96-1.96l1.85,1.85c0.92-0.18,1.82-0.47,2.68-0.87l-2.76-2.76
					l2.95-2.95L59.59,36.8z M47.63,30.75l-2.22-2.22l2.95-2.95l2.22,2.22L47.63,30.75z M52.35,26.02l-2.22-2.22l2.95-2.95l2.22,2.22
					L52.35,26.02z M51.61,34.74l-2.22-2.22l2.95-2.95l2.22,2.22L51.61,34.74z M56.34,30.01l-2.22-2.22l2.95-2.95l2.22,2.22
					L56.34,30.01z"/>
			</g>
			<g>
				<path class="st2" d="M25.13,60.24l-5.37-5.37l12.63-12.63l5.37,5.37L25.13,60.24z M23.55,54.87l1.58,1.58l8.84-8.84l-1.58-1.58
					L23.55,54.87z"/>
			</g>
			<g>
				<path class="st2" d="M35.59,49.23l-4.82-4.82l5-10.37l1.23,2.37c0.71,1.35,1.62,2.59,2.71,3.69l0.18,0.18
					c1.09,1.09,2.33,2,3.69,2.71l2.37,1.23L35.59,49.23z M34.01,43.86l2.13,2.13l4.05-1.96c-0.77-0.56-1.5-1.18-2.18-1.86
					l-0.18-0.18c-0.68-0.68-1.3-1.41-1.86-2.18L34.01,43.86z"/>
			</g>
			<g>
				<path class="st2" d="M10.45,69.55L10.45,69.55c-1.48-1.48-1.48-3.88,0-5.37l9-9c0.7-0.7,1.83-0.7,2.53,0l2.84,2.84
					c0.7,0.7,0.7,1.83,0,2.53l-9,9C14.33,71.03,11.93,71.03,10.45,69.55z"/>
				<path class="st2" d="M9.5,70.5c-2-2-2-5.26,0-7.26l9-9c1.22-1.22,3.2-1.22,4.42,0l2.84,2.84c1.22,1.22,1.22,3.2,0,4.42l-9,9
					C14.76,72.5,11.5,72.5,9.5,70.5z M21.02,56.13c-0.17-0.17-0.46-0.17-0.63,0l-9,9c-0.96,0.96-0.96,2.52,0,3.47s2.52,0.96,3.47,0
					l9-9c0.17-0.17,0.17-0.46,0-0.63L21.02,56.13z"/>
			</g>
			<g>
				<path class="st2" d="M38.01,42.18l-0.18-0.18c-6.91-6.91-6.91-18.16,0-25.07l3.73-3.73c6.91-6.91,18.16-6.91,25.07,0l0.18,0.18
					c6.91,6.91,6.91,18.16,0,25.07l-3.73,3.73C56.17,49.09,44.92,49.09,38.01,42.18z M64.74,15.08c-5.87-5.87-15.42-5.87-21.29,0
					l-3.73,3.73c-5.87,5.87-5.87,15.42,0,21.29l0.18,0.18c5.87,5.87,15.42,5.87,21.29,0l3.73-3.73c5.87-5.87,5.87-15.42,0-21.29
					L64.74,15.08z M41.44,38.7l-0.14-0.14c-5.27-5.27-5.27-13.85,0-19.12l2.78-2.78c5.27-5.27,13.85-5.27,19.12,0l0.14,0.14
					c5.27,5.27,5.27,13.85,0,19.12l-2.78,2.78C55.29,43.97,46.71,43.97,41.44,38.7z M61.31,18.56c-4.23-4.23-11.11-4.23-15.33,0
					l-2.78,2.78c-4.23,4.23-4.23,11.11,0,15.33l0.14,0.14c4.23,4.23,11.11,4.23,15.33,0l2.78-2.78c4.23-4.23,4.23-11.11,0-15.33
					L61.31,18.56z"/>
			</g>
		</g>
	</g>
</g>
</svg>
