<?xml version="1.0" encoding="utf-8"?>
<!-- Generator: Adobe Illustrator 27.0.1, SVG Export Plug-In . SVG Version: 6.00 Build 0)  -->
<svg version="1.1" xmlns="http://www.w3.org/2000/svg" xmlns:xlink="http://www.w3.org/1999/xlink" x="0px" y="0px"
	 viewBox="0 0 394 128" style="enable-background:new 0 0 394 128;" xml:space="preserve">
<style type="text/css">
	.st0{fill:none;stroke:#000000;stroke-width:8;stroke-miterlimit:10;}
	.st1{fill:#39B54A;}
	.st2{fill:#FFFFFF;}
	.st3{fill:none;}
	.st4{fill:#1A1A1A;}
	.st5{fill:#FFFFFF;stroke:#000000;stroke-miterlimit:10;}
	.st6{fill:none;stroke:#000000;stroke-width:3;stroke-linecap:round;stroke-linejoin:round;stroke-miterlimit:10;}
	.st7{fill:#FFFFFF;stroke:#000000;stroke-width:3;stroke-linecap:round;stroke-linejoin:round;stroke-miterlimit:10;}
	.st8{fill:none;stroke:#1E1E1E;stroke-width:4;stroke-linecap:round;stroke-linejoin:round;stroke-miterlimit:10;}
	.st9{fill:#FFFFFF;stroke:#1E1E1E;stroke-width:4;stroke-linejoin:round;stroke-miterlimit:10;}
	.st10{fill:none;stroke:#1E1E1E;stroke-width:4;stroke-linejoin:round;stroke-miterlimit:10;}
	.st11{fill:#1E1E1E;stroke:#1E1E1E;stroke-width:4;stroke-linejoin:round;stroke-miterlimit:10;}
	.st12{fill:none;stroke:#FFFFFF;stroke-width:4;stroke-linejoin:round;stroke-miterlimit:10;}
	.st13{fill:#1E1E1E;}
	
		.st14{clip-path:url(#SVGID_00000144308459820838414930000011360089424380031932_);fill:url(#SVGID_00000091012707077002019400000017044867245761208243_);}
	.st15{clip-path:url(#SVGID_00000144308459820838414930000011360089424380031932_);}
	.st16{opacity:0.1;}
	.st17{fill:url(#SVGID_00000078726561053731191740000007947899124741882285_);}
	.st18{fill:url(#SVGID_00000106870296151706886530000015027997008279646607_);}
	.st19{fill:url(#SVGID_00000174567325758015151390000009477335998584314554_);}
</style>
<g id="圖層_1">
</g>
<g id="圖層_2">
	<g>
		<g>
			<g>
				<path class="st1" d="M51.88,56.09c0,2.05-1.06,3.96-2.79,4.99l-16.45,9.78l-0.01-9.94l18.17-10.81
					c0.47-0.29,1.08,0.06,1.08,0.61L51.88,56.09z"/>
			</g>
			<g>
				<path class="st1" d="M32.63,50.94l-0.01,9.94L16.17,51.1c-1.73-1.03-2.79-2.94-2.79-4.99l0.01-5.36c0-0.56,0.61-0.9,1.08-0.61
					L32.63,50.94z"/>
			</g>
			<g>
				<path class="st1" d="M32.63,70.91v48.92c0,1.41-0.52,2.77-1.46,3.81l-3.71,4.12c-0.43,0.48-1.24,0.18-1.24-0.48V106.1
					L6.29,88.23c-3.94-3.54-6.1-8.2-6.1-13.13V35.26c0-4.93,2.17-9.6,6.1-13.13L25.02,5.32c0.46-0.41,1.19-0.09,1.19,0.53v3.01
					c0,1.62-0.69,3.17-1.9,4.25L10.37,25.62c-2.89,2.6-4.48,6.02-4.48,9.64V75.1c0,3.62,1.59,7.04,4.48,9.64l15.84,14.22V77.04
					l-10.05-5.97c-1.73-1.03-2.79-2.94-2.79-4.99l0.01-5.36c0-0.56,0.61-0.9,1.08-0.61L32.63,70.91z"/>
			</g>
			<g>
				<polygon class="st1" points="32.63,40.96 32.63,47.16 32.63,47.16 				"/>
			</g>
			<g>
				<polygon class="st1" points="39.04,47.09 39.04,47.16 38.94,47.16 				"/>
			</g>
			<g>
				<path class="st1" d="M65.07,35.26V75.1c0,4.93-2.17,9.6-6.1,13.13l-18.73,16.81c-0.46,0.41-1.19,0.09-1.19-0.53v-3.01
					c0-1.62,0.69-3.17,1.9-4.25l13.95-12.51c2.89-2.6,4.48-6.02,4.48-9.64V35.26c0-3.62-1.59-7.04-4.48-9.64L39.04,11.4v25.74
					l11.75-6.99c0.47-0.29,1.08,0.06,1.08,0.61l0.01,5.36c0,2.05-1.06,3.96-2.79,4.99l-10.05,5.97l-0.11,0.06l-6.3,3.74l-0.01-3.74
					l-0.01-6.2V1.22c0-1.05,1.24-1.6,2.02-0.91l0.01,0.01l24.3,21.8C62.9,25.66,65.07,30.33,65.07,35.26z"/>
			</g>
		</g>
		<g>
			<path class="st13" d="M145.05,26.56h-28.58v4.22h25v5.73h-25v4.14h30.25v5.89H76.51v-5.89h29.93v-4.14H81.76v-5.73h24.68v-4.22
				H78.02v-5.89h28.42v-6.21h10.03v6.21h28.58V26.56z M84.23,50.53h55.41v30.81c0,3.02-0.96,5.09-2.79,6.13
				c-1.91,1.03-5.41,1.59-10.51,1.59c-2.47,0-5.33-0.24-8.68-0.8l-1.43-7c2.55,0.4,4.78,0.64,6.69,0.64c2.87,0,4.7-0.16,5.49-0.48
				c0.8-0.32,1.19-0.96,1.19-1.99V76H94.26v13.21H84.23V50.53z M94.26,60.72h35.35v-4.3H94.26V60.72z M129.6,66.29H94.26v4.14h35.35
				V66.29z"/>
			<path class="st13" d="M175.53,53.95h49.12V60h-26.83v4.62h30.89v6.21h-23.25c6.77,4.38,14.97,8.2,24.6,11.3l-3.02,5.73
				c-11.07-2.95-20.86-7-29.22-12.26v13.45h-9.71V75.84c-8.92,5.49-18.95,9.39-30.09,11.86l-2.47-5.65
				c9.47-2.79,17.91-6.53,25.32-11.23h-23.33v-6.21h30.57V60h-22.13V40.81h-9.23v-5.89h9.23v-5.57h8.2v-3.58h-18.23v-6.21h18.23
				v-4.38h9.55v4.38h17.67v-4.38h9.55v4.38h18.07v6.21h-18.07v3.58h6.13v5.57h11.15v5.89h-11.15v10.11H185.8V40.81h-10.27V53.95z
				 M195.2,34.92h12.5v-5.57h-6.29v-3.58h-17.67v4.54h-8.2v4.62h10.27v-5.57h9.39V34.92z M195.2,45.35h12.5v-4.54h-12.5V45.35z"/>
			<path class="st13" d="M271.3,20.36v59.15c0,3.18-0.88,5.41-2.55,6.69c-1.75,1.27-4.7,1.91-8.92,1.99
				c-3.82,0-7.48-0.16-10.91-0.56l-1.67-7.88c3.1,0.4,6.13,0.64,8.92,0.64c1.99,0,3.42-0.32,4.14-1.03
				c0.72-0.64,1.11-1.75,1.11-3.34V60.48c-6.21,4.3-12.98,8.6-20.3,12.82l-4.46-8.84c8.84-3.98,17.04-7.96,24.76-11.86V27.2h-21.73
				v-6.85H271.3z M250.28,50.77c-2.63-5.33-5.89-10.35-9.71-15.21l8.28-4.14c3.58,6.45,6.13,11.94,7.56,16.64L250.28,50.77z
				 M307.28,20.36v59.15c0,3.18-0.88,5.41-2.55,6.69c-1.75,1.27-4.78,1.91-9,1.99c-3.9,0-7.56-0.16-11.07-0.56L283,79.74
				c3.18,0.4,6.21,0.64,9,0.64c2.15,0,3.58-0.32,4.3-1.03c0.72-0.64,1.11-1.75,1.11-3.34V60.4c-6.29,4.3-13.21,8.6-20.62,12.9
				l-4.46-8.84c8.92-3.98,17.28-7.96,25.08-11.86V27.2h-22.85v-6.85H307.28z M284.99,50.61c-2.63-5.33-5.89-10.35-9.71-15.2
				l8.28-4.14c3.58,6.45,6.13,11.94,7.56,16.64L284.99,50.61z"/>
			<path class="st13" d="M318.98,21.47h25.95v6.69h-8.28v17.59h7.96v6.69h-7.96v17.91c2.87-0.8,5.65-1.59,8.44-2.39l0.32,3.5
				c5.97-4.94,11.86-10.67,17.75-17.2V34.13h-16.8v-6.85h16.8V15.34h9.55v11.94h10.27c-2.63-2.15-5.57-4.22-8.92-6.21l6.05-5.57
				c3.1,2.79,5.89,5.65,8.28,8.6l-3.58,3.18h6.61v6.85h-18.71v7.88c0.88,2.95,1.91,5.89,3.1,8.68c2.79-3.9,5.65-8.12,8.6-12.82
				l7.8,5.09c-3.9,5.02-8.36,9.71-13.22,14.09c3.74,6.93,8.68,13.21,14.81,18.71l-4.38,5.17c-6.85-5.81-12.42-12.02-16.72-18.71
				v18.31c0,2.79-0.8,4.78-2.47,6.05c-1.67,1.19-4.38,1.83-8.28,1.83c-3.02,0-5.81-0.24-8.44-0.72l-1.51-7.72
				c2.79,0.4,5.17,0.64,7.16,0.64c1.51,0,2.55-0.24,3.1-0.8c0.56-0.56,0.8-1.43,0.88-2.71V66.05c-5.57,4.86-11.07,9.16-16.4,12.9
				l-3.1-3.82c-7.48,3.18-15.68,6.21-24.68,9.08l-2.47-9c3.58-0.8,7.16-1.59,10.59-2.39V52.44h-7.96v-6.69h7.96V28.16h-8.12V21.47z
				 M353.13,37.23c3.1,5.41,5.65,10.51,7.48,15.28l-5.49,3.58c-1.99-3.9-5.18-8.52-9.55-13.93L353.13,37.23z"/>
		</g>
		<g>
			<path class="st13" d="M68.84,110.93l6.71,15.71l-0.07,0.07h-2.07l-1.67-4.08H64.2l-1.65,4.08h-2.07l-0.07-0.07l6.75-15.71H68.84z
				 M64.87,120.98h6.2l-2.01-4.9c-0.42-1.03-0.78-1.92-1.09-2.76h-0.04c-0.29,0.85-0.65,1.74-1.07,2.76L64.87,120.98z"/>
			<path class="st13" d="M81.86,118.82c0-4.68,3.12-8.34,8.05-8.34c4.93,0,8.05,3.66,8.05,8.34c0,4.7-3.19,8.34-8.05,8.34
				C85.04,127.16,81.86,123.52,81.86,118.82z M95.85,118.82c0-3.68-2.25-6.46-5.95-6.46c-3.7,0-5.95,2.79-5.95,6.46
				c0,3.63,2.27,6.46,5.95,6.46C93.58,125.28,95.85,122.45,95.85,118.82z"/>
			<path class="st13" d="M106.78,126.71v-15.78h4.12c3.66,0,5.44,1.43,5.44,4.1c0,1.56-0.91,2.88-2.45,3.32v0.04
				c1.96,0.4,3.25,1.83,3.25,3.81c0,2.99-1.92,4.5-6.17,4.5H106.78z M108.72,117.82h2.32c2.25,0,3.37-0.89,3.37-2.72
				c0-1.65-1.16-2.43-3.63-2.43h-2.05V117.82z M108.72,124.97h2.18c3.08,0,4.26-0.89,4.26-2.79c0-1.87-1.25-2.79-4.01-2.79h-2.43
				V124.97z"/>
			<path class="st13" d="M131.94,110.93l6.71,15.71l-0.07,0.07h-2.07l-1.67-4.08h-7.53l-1.65,4.08h-2.07l-0.07-0.07l6.75-15.71
				H131.94z M127.97,120.98h6.2l-2.01-4.9c-0.42-1.03-0.78-1.92-1.09-2.76h-0.04c-0.29,0.85-0.65,1.74-1.07,2.76L127.97,120.98z"/>
			<path class="st13" d="M156.59,126.71v-15.78h4.12c3.66,0,5.44,1.43,5.44,4.1c0,1.56-0.91,2.88-2.45,3.32v0.04
				c1.96,0.4,3.25,1.83,3.25,3.81c0,2.99-1.92,4.5-6.17,4.5H156.59z M158.53,117.82h2.32c2.25,0,3.37-0.89,3.37-2.72
				c0-1.65-1.16-2.43-3.63-2.43h-2.05V117.82z M158.53,124.97h2.18c3.08,0,4.26-0.89,4.26-2.79c0-1.87-1.25-2.79-4.01-2.79h-2.43
				V124.97z"/>
			<path class="st13" d="M174.6,124.3c0-2.43,1.94-3.68,6.75-4.28v-0.76c0-1.63-0.6-2.3-2.1-2.3c-1.25,0-2.74,0.6-3.74,1.49h-0.09
				l-0.22-1.76c1.18-0.78,2.92-1.34,4.24-1.34c2.5,0,3.74,1.2,3.74,3.54v7.8h-1.52l-0.18-1.52c-1.43,1.47-2.41,1.96-3.81,1.96
				C175.78,127.16,174.6,126.09,174.6,124.3z M181.36,123.99v-2.72c-3.97,0.6-4.93,1.4-4.93,2.9c0,0.98,0.53,1.49,1.56,1.49
				C179.04,125.66,180.06,125.13,181.36,123.99z"/>
			<path class="st13" d="M199.79,110.33h1.83v16.38h-1.56l-0.13-1.03c-1.14,0.98-2.3,1.47-3.45,1.47c-2.94,0-4.88-2.32-4.88-5.84
				c0-3.37,2.25-5.95,5.15-5.95c1,0,2.12,0.33,3.05,0.91V110.33z M196.82,125.48c1.03,0,1.98-0.4,2.96-1.27v-6.42
				c-0.96-0.51-1.76-0.74-2.72-0.74c-2.14,0-3.57,1.69-3.57,4.26C193.5,123.95,194.73,125.48,196.82,125.48z"/>
			<path class="st13" d="M227.16,119.47v7.24h-1.83v-6.75c0-1.98-0.71-2.9-1.92-2.9c-1.18,0-2.43,0.82-3.52,1.98
				c0.02,0.13,0.02,0.29,0.02,0.42v7.24h-1.83v-6.75c0-1.98-0.71-2.9-1.92-2.9c-1.18,0-2.43,0.8-3.5,1.96v7.69h-1.83v-10.9h1.58
				l0.11,1.69c1.14-1.25,2.52-2.14,4.1-2.14c1.49,0,2.59,0.8,3.03,2.3v-0.04c1.16-1.32,2.58-2.25,4.21-2.25
				C225.89,115.36,227.16,116.81,227.16,119.47z"/>
			<path class="st13" d="M235.98,112.31c0-0.71,0.58-1.29,1.32-1.29c0.74,0,1.32,0.6,1.32,1.29s-0.58,1.29-1.32,1.29
				C236.56,113.6,235.98,113.02,235.98,112.31z M236.39,126.71v-10.9h1.83v10.9H236.39z"/>
			<path class="st13" d="M256.83,119.47v7.24H255v-6.75c0-2.01-0.71-2.9-2.14-2.9c-1.27,0-2.52,0.8-3.59,1.96v7.69h-1.83v-10.9h1.58
				l0.11,1.69c1.14-1.25,2.52-2.14,4.19-2.14C255.56,115.36,256.83,116.81,256.83,119.47z"/>
			<path class="st13" d="M266.45,123.61v-6.26h-1.98v-1.54h2.03v-2.63l1.54-0.96h0.25v3.59h3.28v1.54h-3.28v6.2
				c0,1.49,0.42,1.92,1.49,1.92c0.51,0,1.09-0.11,1.63-0.38l0.18,0.09l0.07,1.6c-0.67,0.27-1.45,0.38-2.1,0.38
				C267.46,127.16,266.45,126,266.45,123.61z"/>
			<path class="st13" d="M278.4,121.27c0-3.39,2.23-5.91,5.62-5.91c3.39,0,5.62,2.52,5.62,5.91c0,3.45-2.21,5.88-5.62,5.88
				C280.61,127.16,278.4,124.73,278.4,121.27z M287.72,121.27c0-2.45-1.4-4.21-3.7-4.21c-2.3,0-3.7,1.76-3.7,4.21
				c0,2.47,1.4,4.19,3.7,4.19C286.31,125.46,287.72,123.75,287.72,121.27z"/>
			<path class="st13" d="M307.38,119.47v7.24h-1.83v-6.75c0-2.01-0.71-2.9-2.14-2.9c-1.27,0-2.52,0.8-3.59,1.96v7.69h-1.83v-10.9
				h1.58l0.11,1.69c1.14-1.25,2.52-2.14,4.19-2.14C306.11,115.36,307.38,116.81,307.38,119.47z"/>
			<path class="st13" d="M326.41,118.84c0-4.88,3.32-8.36,7.98-8.36c2.07,0,3.99,0.67,5.84,2.01l-0.25,2.05h-0.09
				c-1.69-1.43-3.57-2.18-5.48-2.18c-3.5,0-5.91,2.63-5.91,6.44c0,3.83,2.43,6.49,5.97,6.49c1.89,0,3.79-0.78,5.48-2.21h0.09
				l0.25,2.05c-1.81,1.34-3.77,2.03-5.88,2.03C329.73,127.16,326.41,123.72,326.41,118.84z"/>
			<path class="st13" d="M349.37,126.71v-16.38h1.83v16.38H349.37z"/>
			<path class="st13" d="M367.71,115.81h1.83v10.9h-1.58l-0.13-1.98c-1.2,1.56-2.56,2.43-4.08,2.43c-2.03,0-3.32-1.43-3.32-4.21
				v-7.13h1.83v6.82c0,1.94,0.71,2.83,1.94,2.83c1.16,0,2.41-0.85,3.52-2.32V115.81z"/>
			<path class="st13" d="M388.86,121.16c0,3.45-2.18,6-5.19,6c-1.11,0-2.32-0.4-3.32-1.11l-0.09,0.67h-1.49v-16.38h1.83v6.49
				c1.11-0.94,2.3-1.45,3.5-1.45C386.97,115.36,388.86,117.66,388.86,121.16z M386.95,121.16c0-2.56-1.23-4.1-3.28-4.1
				c-1.07,0-2.12,0.45-3.08,1.29v6.33c0.98,0.56,1.81,0.8,2.79,0.8C385.54,125.48,386.95,123.77,386.95,121.16z"/>
		</g>
	</g>
</g>
</svg>
