<?xml version="1.0" encoding="utf-8"?>
<!-- Generator: Adobe Illustrator 27.0.1, SVG Export Plug-In . SVG Version: 6.00 Build 0)  -->
<svg version="1.1" xmlns="http://www.w3.org/2000/svg" xmlns:xlink="http://www.w3.org/1999/xlink" x="0px" y="0px"
	 viewBox="0 0 80 80" style="enable-background:new 0 0 80 80;" xml:space="preserve">
<style type="text/css">
	.st0{fill:none;stroke:#000000;stroke-width:8;stroke-miterlimit:10;}
	.st1{fill:#39B54A;}
	.st2{fill:#56BBB5;}
	.st3{fill:#FFFFFF;}
	.st4{fill:#FFFFFF;stroke:#FFFFFF;stroke-width:0.5;stroke-miterlimit:10;}
	.st5{fill:#FFFFFF;stroke:#000000;stroke-miterlimit:10;}
	.st6{fill:none;stroke:#000000;stroke-width:3;stroke-linecap:round;stroke-linejoin:round;stroke-miterlimit:10;}
	.st7{fill:#FFFFFF;stroke:#000000;stroke-width:3;stroke-linecap:round;stroke-linejoin:round;stroke-miterlimit:10;}
	.st8{fill:none;stroke:#1E1E1E;stroke-width:4;stroke-linecap:round;stroke-linejoin:round;stroke-miterlimit:10;}
	.st9{fill:#FFFFFF;stroke:#1E1E1E;stroke-width:4;stroke-linejoin:round;stroke-miterlimit:10;}
	.st10{fill:none;stroke:#1E1E1E;stroke-width:4;stroke-linejoin:round;stroke-miterlimit:10;}
	.st11{fill:#1E1E1E;stroke:#1E1E1E;stroke-width:4;stroke-linejoin:round;stroke-miterlimit:10;}
	.st12{fill:none;stroke:#FFFFFF;stroke-width:4;stroke-linejoin:round;stroke-miterlimit:10;}
	.st13{fill:none;}
	.st14{fill:#1E1E1E;}
	
		.st15{clip-path:url(#SVGID_00000062177156998328645100000000217321943843653022_);fill:url(#SVGID_00000082343302541684016130000003111781307870762431_);}
	.st16{opacity:0.1;}
	.st17{fill:url(#SVGID_00000058568182947373831200000018221936768187037371_);}
	.st18{fill:url(#SVGID_00000024696170152378546770000013896528839424347296_);}
	.st19{fill:url(#SVGID_00000093160967160306043320000016775752656421642173_);}
	
		.st20{clip-path:url(#SVGID_00000041283727830554908240000016056458268318286722_);fill:url(#SVGID_00000001623230786024426330000015337665423214661051_);}
	.st21{clip-path:url(#SVGID_00000041283727830554908240000016056458268318286722_);}
	.st22{fill:url(#SVGID_00000023276528172274087740000008996806343362730425_);}
	.st23{fill:url(#SVGID_00000140706719737644492230000004735244871143249824_);}
	.st24{fill:url(#SVGID_00000116920082650520088130000000407481255744299406_);}
	.st25{fill:none;stroke:#FF0000;stroke-width:12;stroke-miterlimit:10;}
	.st26{fill:#FF0000;}
	.st27{fill:#FF0000;stroke:#FF0000;stroke-width:12;stroke-miterlimit:10;}
	.st28{clip-path:url(#SVGID_00000045586370262644967390000001132138146572854453_);}
	.st29{clip-path:url(#SVGID_00000021121339813977501860000009133418723693212319_);fill:#9B9B9B;}
	.st30{fill:none;stroke:#000000;stroke-width:0.75;stroke-linecap:round;stroke-linejoin:round;stroke-dasharray:2.9755,5.9509;}
	.st31{fill:#FFFFFF;stroke:#000000;stroke-linecap:round;stroke-linejoin:round;stroke-miterlimit:10;}
	.st32{fill:none;stroke:#000000;stroke-width:2.5;stroke-linecap:round;stroke-linejoin:round;stroke-miterlimit:10;}
	.st33{fill:none;stroke:#000000;stroke-width:2;stroke-linecap:round;stroke-linejoin:round;stroke-miterlimit:10;}
	.st34{fill:#FFFFFF;stroke:#000000;stroke-width:2.5;stroke-linecap:round;stroke-linejoin:round;stroke-miterlimit:10;}
	.st35{fill:#BBE4E1;}
	.st36{clip-path:url(#SVGID_00000010279480871508280870000009550510989490014650_);fill:#56BBB5;}
	.st37{clip-path:url(#SVGID_00000010279480871508280870000009550510989490014650_);}
	.st38{clip-path:url(#SVGID_00000078723924428666944980000016679139471749353089_);fill:#FFFFFF;}
	.st39{clip-path:url(#SVGID_00000078723924428666944980000016679139471749353089_);}
	.st40{clip-path:url(#SVGID_00000152245129078343003440000003473010102083217327_);}
	.st41{fill:#78C9C4;}
	.st42{clip-path:url(#SVGID_00000152245129078343003440000003473010102083217327_);fill:#56BBB5;}
	.st43{clip-path:url(#SVGID_00000178924909752362963000000012053004890908392850_);fill:#78C9C4;}
	.st44{clip-path:url(#SVGID_00000178924909752362963000000012053004890908392850_);}
	.st45{clip-path:url(#SVGID_00000178924909752362963000000012053004890908392850_);fill:#56BBB5;}
	.st46{clip-path:url(#SVGID_00000139988238728017963630000007273962699921289910_);}
	.st47{clip-path:url(#SVGID_00000139988238728017963630000007273962699921289910_);fill:#78C9C4;}
	.st48{clip-path:url(#SVGID_00000019639725153279214170000015989740691404613254_);}
</style>
<g id="圖層_1">
</g>
<g id="圖層_2">
	<g>
		<defs>
			<rect id="SVGID_00000140698314498752575100000002632488268252039103_" width="80" height="80"/>
		</defs>
		<clipPath id="SVGID_00000038402981165645185880000013764622033156447895_">
			<use xlink:href="#SVGID_00000140698314498752575100000002632488268252039103_"  style="overflow:visible;"/>
		</clipPath>
		<g style="clip-path:url(#SVGID_00000038402981165645185880000013764622033156447895_);">
			<g>
				<path class="st3" d="M76,39.99c0,6.7-5.42,12.15-12.08,12.15H60.5c-1,0-1.82-0.81-1.82-1.8v-20.7c0-1,0.82-1.8,1.82-1.8h3.42
					C70.58,27.84,76,33.29,76,39.99z"/>
			</g>
			<path class="st3" d="M54.4,27.71v24.59c-0.1,0.07-0.21,0.14-0.32,0.2l-3.28,1.48L18.29,68.71c-2.08,1.04-4.68,1.28-7.06,0.63
				c-2.38-0.65-4.33-2.13-5.33-4.08c-0.65-1.25-0.97-2.59-0.97-3.92c0-1.4,0.35-2.8,1.05-4.1c0.69-1.26,1.68-2.36,2.89-3.26
				c-0.08-0.04-0.17-0.07-0.25-0.11c-2.36-1.23-4-3.27-4.48-5.58C4.05,47.81,4,47.33,4,46.86c0-1.84,0.74-3.65,2.11-5.12
				c0.16-0.17,0.33-0.33,0.5-0.49c0.75-0.68,0.75-1.81,0-2.48c-0.17-0.16-0.34-0.32-0.5-0.49C4.74,36.8,4,34.99,4,33.14
				c0-0.48,0.05-0.95,0.14-1.43c0.49-2.31,2.12-4.35,4.49-5.58c0.08-0.04,0.16-0.07,0.24-0.12c-1.21-0.89-2.2-2-2.89-3.26
				c-0.7-1.3-1.05-2.69-1.05-4.09c0-1.34,0.32-2.67,0.97-3.93c1-1.94,2.94-3.42,5.33-4.07c2.38-0.65,4.98-0.4,7.14,0.67l32.43,14.7
				l3.28,1.49C54.19,27.56,54.3,27.63,54.4,27.71z"/>
		</g>
	</g>
</g>
</svg>
