<?xml version="1.0" encoding="utf-8"?>
<!-- Generator: Adobe Illustrator 27.0.1, SVG Export Plug-In . SVG Version: 6.00 Build 0)  -->
<svg version="1.1" xmlns="http://www.w3.org/2000/svg" xmlns:xlink="http://www.w3.org/1999/xlink" x="0px" y="0px"
	 viewBox="0 0 80 80" style="enable-background:new 0 0 80 80;" xml:space="preserve">
<style type="text/css">
	.st0{fill:none;stroke:#000000;stroke-width:8;stroke-miterlimit:10;}
	.st1{fill:#39B54A;}
	.st2{fill:#FFFFFF;}
	.st3{fill:#56BBB5;}
	.st4{fill:#FFFFFF;stroke:#FFFFFF;stroke-width:0.5;stroke-miterlimit:10;}
	.st5{fill:#FFFFFF;stroke:#000000;stroke-miterlimit:10;}
	.st6{fill:none;stroke:#000000;stroke-width:3;stroke-linecap:round;stroke-linejoin:round;stroke-miterlimit:10;}
	.st7{fill:#FFFFFF;stroke:#000000;stroke-width:3;stroke-linecap:round;stroke-linejoin:round;stroke-miterlimit:10;}
	.st8{fill:none;stroke:#1E1E1E;stroke-width:4;stroke-linecap:round;stroke-linejoin:round;stroke-miterlimit:10;}
	.st9{fill:#FFFFFF;stroke:#1E1E1E;stroke-width:4;stroke-linejoin:round;stroke-miterlimit:10;}
	.st10{fill:none;stroke:#1E1E1E;stroke-width:4;stroke-linejoin:round;stroke-miterlimit:10;}
	.st11{fill:#1E1E1E;stroke:#1E1E1E;stroke-width:4;stroke-linejoin:round;stroke-miterlimit:10;}
	.st12{fill:none;stroke:#FFFFFF;stroke-width:4;stroke-linejoin:round;stroke-miterlimit:10;}
	.st13{fill:none;}
	.st14{fill:#1E1E1E;}
	
		.st15{clip-path:url(#SVGID_00000175287546083339747990000016476090732555978635_);fill:url(#SVGID_00000022529465353520956930000010889582020214383497_);}
	.st16{opacity:0.1;}
	.st17{fill:url(#SVGID_00000054951979825060491890000013780176356725808259_);}
	.st18{fill:url(#SVGID_00000094610267657668344500000014071708675469446564_);}
	.st19{fill:url(#SVGID_00000084532550169191889220000003091312609996577920_);}
	
		.st20{clip-path:url(#SVGID_00000030489287805940355660000005928228676694514867_);fill:url(#SVGID_00000132806615462242124990000018025753576772855986_);}
	.st21{clip-path:url(#SVGID_00000030489287805940355660000005928228676694514867_);}
	.st22{fill:url(#SVGID_00000145772665238252251490000012015315293994686085_);}
	.st23{fill:url(#SVGID_00000018929916661118420980000017988391093463650983_);}
	.st24{fill:url(#SVGID_00000080176524455678826030000012719591889439389351_);}
	.st25{fill:none;stroke:#FF0000;stroke-width:12;stroke-miterlimit:10;}
	.st26{fill:#FF0000;}
	.st27{fill:#FF0000;stroke:#FF0000;stroke-width:12;stroke-miterlimit:10;}
	.st28{clip-path:url(#SVGID_00000041291018410861644060000009473371791228038279_);}
	.st29{clip-path:url(#SVGID_00000162352915320353242450000016623250732560264847_);fill:#9B9B9B;}
</style>
<g id="圖層_1">
</g>
<g id="圖層_2">
	<g>
		<rect x="-0.15" y="-0.15" class="st13" width="80" height="80"/>
		<g>
			<g>
				<path class="st2" d="M56.65,11.85h-16.8h-16.8l-13.6,56c10.12,0,20.25,0,30.37,0c10.14,0,20.29,0,30.43,0
					C65.71,49.18,61.18,30.51,56.65,11.85z"/>
				<path class="st3" d="M71.8,67.47l-13.6-56c-0.17-0.72-0.82-1.22-1.55-1.22h-33.6c-0.74,0-1.38,0.5-1.55,1.22l-13.6,56
					c-0.12,0.47-0.01,0.98,0.3,1.37c0.3,0.38,0.77,0.61,1.26,0.61h60.8c0.49,0,0.95-0.22,1.26-0.61
					C71.81,68.45,71.92,67.94,71.8,67.47z M66.46,59.05h-3.78l-8.74-40.8h2.62L66.46,59.05z M55.39,13.45l0.39,1.6h-2.53l-0.34-1.6
					H55.39z M41.45,13.45h8.19l0.34,1.6h-8.54V13.45z M41.45,18.25h9.22l8.74,40.8H41.45V18.25z M29.82,13.45h8.42v1.6h-8.77
					L29.82,13.45z M38.25,18.25v40.8h-18.2l8.74-40.8H38.25z M24.3,13.45h2.25l-0.34,1.6h-2.3L24.3,13.45z M15.23,66.25h-3.75
					l0.97-4h3.64L15.23,66.25z M13.23,59.05l9.9-40.8h2.38l-8.74,40.8H13.23z M38.25,66.25H18.5l0.86-4h18.89V66.25z M41.45,66.25
					v-4H60.1l0.86,4H41.45z M64.23,66.25l-0.86-4h3.87l0.97,4H64.23z"/>
			</g>
			<g>
				<rect x="9.85" y="29.45" class="st2" width="59.2" height="7.2"/>
				<path class="st3" d="M69.05,27.85H9.85c-0.88,0-1.6,0.72-1.6,1.6v7.2v7.2c0,0.88,0.72,1.6,1.6,1.6c0.88,0,1.6-0.72,1.6-1.6v-5.6
					h56v6c0,0.88,0.72,1.6,1.6,1.6c0.88,0,1.6-0.72,1.6-1.6v-7.6v-6.8v-0.4C70.65,28.56,69.93,27.85,69.05,27.85z M11.45,35.05v-4
					h56v4H11.45z"/>
			</g>
		</g>
	</g>
</g>
</svg>
